# xmcd
#
# Track frame offsets:
#	150
#	17940
#	30803
#	45719
#	71155
#	91635
#	110228
#	126806
#	145456
#	160058
#	183319
#
# Disc length: 2740 seconds
#
# Revision: 1
# Processed by: cddbd v1.5.2PL0 Copyright (c) Steve Scherf et al.
# Submitted via: EZCDAudioConverter 6.0.2.1
#
DISCID=910ab20b
DTITLE=Blackhawk - Brothers of the Southland
DYEAR=2014
DGENRE=Country
TTITLE0=Brighter
TTITLE1=That's What I'm Talking About
TTITLE2=Heart With a View
TTITLE3=Brothers of the Southland
TTITLE4=Champagne High
TTITLE5=Baby the Rain Must Fall
TTITLE6=Wichita
TTITLE7=Voices
TTITLE8=Wide Open Spaces
TTITLE9=Bluebird
TTITLE10=Down From the Mountain
EXTD=
EXTT0=
EXTT1=
EXTT2=
EXTT3=
EXTT4=
EXTT5=
EXTT6=
EXTT7=
EXTT8=
EXTT9=
EXTT10=
PLAYORDER=
